<?xml version="1.0" encoding="UTF-8"?>
<svg xmlns="http://www.w3.org/2000/svg" viewBox="0 0 512 512">
  <!-- "Red" position (top arc) -->
  <path fill="#5a8df0" d="M 48.15 136 A 240 240 0 0 1 463.85 136 L 351.26 201 A 110 110 0 0 0 160.74 201 Z"/>
  <!-- "Yellow" position (right→bottom arc) -->
  <path fill="#3aa8d8" d="M 463.85 136 A 240 240 0 0 1 256 496 L 256 366 A 110 110 0 0 0 351.26 201 Z"/>
  <!-- "Green" position (bottom→left arc) -->
  <path fill="#5fcdb8" d="M 256 496 A 240 240 0 0 1 48.15 136 L 160.74 201 A 110 110 0 0 0 256 366 Z"/>
  <!-- white separator ring -->
  <circle cx="256" cy="256" r="110" fill="#ffffff"/>
  <!-- center dot -->
  <circle cx="256" cy="256" r="95" fill="#8997fa"/>
</svg>
